<svg width="32" height="32" viewBox="0 0 32 32" fill="#55D7DE" xmlns="http://www.w3.org/2000/svg">
<path d="M26.941 0H12.1755V19.7517H31.9919V5.13898C32 2.36441 29.7247 0 26.941 0ZM7.64095 0H5.16389C2.38023 0 0 2.25986 0 5.14702V7.61598H7.64095V0ZM0 12.2403H7.64095V19.8562H0V12.2403ZM24.3591 31.992H26.8361C29.6198 31.992 32 29.7321 32 26.8449V24.384H24.3591V31.992ZM12.1755 24.384H19.8164V32H12.1755V24.384ZM0 24.384V26.853C0 29.6275 2.26727 32 5.16389 32H7.64095V24.384H0Z" fill="current">
</path>
</svg>